<svg id="Layer_1" enable-background="new 0 0 511.983 511.983" height="512" viewBox="0 0 511.983 511.983" width="512" xmlns="http://www.w3.org/2000/svg"><path d="m244.983 10.992c-72.752 0-138.085 31.722-182.958 82.075l25.666 350.753c42.559 35.678 97.412 57.172 157.292 57.172 135.31 0 245-109.69 245-245s-109.69-245-245-245z" fill="#64c0f4"/><path d="m502.68 94.77c-43.682-3.057-46.775-27.515-96.256-27.515-52.508 0-52.779 27.524-104.719 27.821-53.598.314-53.335-27.821-106.394-27.821-47.967 0-52.34 22.987-92.362 27.176v-.001c-12.206 1.278-27.295.853-40-2.403-36.447 40.438-59.589 93.082-62.6 151.058-.009-.001-.019-.003-.028-.004-.028.531-.007.223-.096 2.306.002 0 .003 0 .005.001-1.285 29.979 2.802 59.399 12.086 87.501-.003-.001-.005-.001-.008-.002.042.126.814 2.438.856 2.561.006.002.012.004.017.005 14.773 43.106 41.212 80.793 75.575 109.27 3.362.023 6.645-.055 10.352-.318v.009c43.641-3.066 46.716-27.512 96.203-27.512 54.461 0 52.994 29.646 110.234 27.751v-.009c48.132-1.599 49.713-27.742 100.878-27.742 48.879 0 52.491 23.867 94.679 27.394 5.859.49 10.88-4.169 10.88-10.049 0-43.396 0-299.918 0-329.407.001-5.27-4.046-9.702-9.302-10.07z" fill="#ebf0f2"/><path d="m169.265 369.646v-248.943c0-26.203 19.356-48.099 44.475-52.11-5.383-.847-11.44-1.339-18.429-1.339-47.967 0-52.34 22.987-92.362 27.176v-.001c-12.206 1.278-27.295.853-40-2.403-36.447 40.438-59.589 93.082-62.6 151.058-.009-.001-.019-.003-.028-.004-.028.531-.007.223-.096 2.306.002 0 .003 0 .005.001-1.285 29.979 2.802 59.399 12.086 87.501-.003-.001-.005-.001-.008-.002.042.126.814 2.438.856 2.561.006.002.012.004.017.005 14.773 43.106 41.212 80.793 75.575 109.27 3.362.023 6.646-.055 10.352-.318v.009c43.641-3.066 46.715-27.512 96.203-27.512 1.167 0 2.299.018 3.416.045-17.415-8.647-29.462-26.631-29.462-47.3z" fill="#c2d4e6"/><path d="m322.54 239.846c-7.079-15.201-22.504-25.764-40.347-25.764-24.526 0-44.48 19.953-44.48 44.48 0 23.381-19.021 42.403-42.402 42.403-23.023 0-41.808-18.45-42.376-41.345h-1.039c.569 47.494 39.227 85.825 86.856 85.825 47.984 0 86.882-38.899 86.882-86.882 0-6.428-.719-12.686-2.044-18.716h-1.05z" fill="#2d60a8"/><g fill="#404051"><path d="m96.2 381.318-36.182-51.673c-2.244-3.205-1.465-7.623 1.74-9.867s7.623-1.465 9.867 1.74l36.182 51.673c2.244 3.205 1.465 7.623-1.74 9.867-3.197 2.24-7.618 1.472-9.867-1.74z"/><path d="m138.764 351.514-36.182-51.673c-2.244-3.205-1.465-7.623 1.74-9.867 3.204-2.244 7.623-1.466 9.867 1.74l36.182 51.673c2.244 3.205 1.465 7.623-1.74 9.867-3.197 2.24-7.618 1.472-9.867-1.74z"/><path d="m117.482 366.417-11.228-16.035c-2.244-3.205-1.465-7.623 1.74-9.867 3.205-2.245 7.623-1.466 9.867 1.74l11.228 16.035c2.244 3.205 1.465 7.623-1.74 9.867-3.197 2.239-7.618 1.471-9.867-1.74z"/><path d="m92.529 330.778-11.229-16.035c-2.244-3.205-1.465-7.623 1.74-9.867 3.205-2.245 7.623-1.466 9.867 1.74l11.229 16.035c2.244 3.205 1.465 7.623-1.74 9.867-3.198 2.24-7.619 1.472-9.867-1.74z"/><path d="m61.758 197.348c-3.205-2.244-3.984-6.662-1.74-9.867l36.182-51.673c2.244-3.205 6.662-3.984 9.867-1.74s3.984 6.662 1.74 9.867l-36.182 51.673c-2.244 3.205-6.662 3.984-9.867 1.74z"/><path d="m104.322 227.152c-3.205-2.244-3.984-6.662-1.74-9.867l36.182-51.673c2.244-3.205 6.662-3.984 9.867-1.74s3.984 6.662 1.74 9.867l-36.182 51.673c-2.244 3.205-6.661 3.984-9.867 1.74z"/><path d="m83.04 212.25c-3.205-2.245-3.984-6.662-1.74-9.867l36.182-51.673c2.244-3.205 6.662-3.984 9.867-1.74s3.984 6.662 1.74 9.867l-36.182 51.673c-2.244 3.205-6.662 3.984-9.867 1.74z"/><path d="m350.181 368.156c-3.205-2.244-3.984-6.662-1.74-9.867l11.228-16.035c2.245-3.206 6.662-3.984 9.867-1.74s3.984 6.662 1.74 9.867l-11.228 16.035c-2.244 3.205-6.662 3.985-9.867 1.74z"/><path d="m375.135 332.518c-3.205-2.244-3.984-6.662-1.74-9.867l11.228-16.035c2.244-3.205 6.662-3.984 9.867-1.74s3.984 6.662 1.74 9.867l-11.228 16.035c-2.244 3.205-6.662 3.985-9.867 1.74z"/><path d="m328.899 353.254c-3.205-2.244-3.984-6.662-1.74-9.867l11.228-16.035c2.244-3.205 6.662-3.984 9.867-1.74s3.984 6.662 1.74 9.867l-11.228 16.035c-2.244 3.205-6.662 3.985-9.867 1.74z"/><path d="m353.853 317.616c-3.205-2.244-3.984-6.662-1.74-9.867l11.228-16.035c2.244-3.205 6.662-3.984 9.867-1.74s3.984 6.662 1.74 9.867l-11.228 16.035c-2.244 3.205-6.662 3.985-9.867 1.74z"/><path d="m371.463 383.058c-3.205-2.244-3.984-6.662-1.74-9.867l11.228-16.035c2.244-3.206 6.662-3.984 9.867-1.74 3.205 2.245 3.984 6.662 1.74 9.867l-11.228 16.035c-2.244 3.204-6.661 3.984-9.867 1.74z"/><path d="m396.417 347.42c-3.205-2.244-3.984-6.662-1.74-9.867l11.228-16.036c2.245-3.205 6.662-3.984 9.867-1.74s3.984 6.662 1.74 9.867l-11.228 16.036c-2.244 3.205-6.662 3.985-9.867 1.74z"/><path d="m405.905 195.608-11.228-16.035c-2.245-3.205-1.465-7.623 1.74-9.867s7.623-1.465 9.867 1.74l11.228 16.035c2.244 3.205 1.465 7.623-1.74 9.867-3.197 2.24-7.618 1.472-9.867-1.74z"/><path d="m380.952 159.971-11.228-16.036c-2.244-3.205-1.465-7.623 1.74-9.867 3.204-2.243 7.623-1.466 9.867 1.74l11.228 16.036c2.244 3.205 1.465 7.623-1.74 9.867-3.198 2.239-7.619 1.471-9.867-1.74z"/><path d="m363.341 225.412-11.228-16.035c-2.245-3.205-1.465-7.623 1.74-9.867 3.205-2.243 7.623-1.466 9.867 1.74l11.228 16.035c2.244 3.205 1.465 7.622-1.74 9.867-3.197 2.24-7.618 1.472-9.867-1.74z"/><path d="m338.387 189.775-11.228-16.036c-2.244-3.205-1.465-7.623 1.74-9.867s7.623-1.466 9.867 1.74l11.228 16.036c2.245 3.205 1.465 7.623-1.74 9.867-3.197 2.239-7.618 1.471-9.867-1.74z"/><path d="m384.623 210.51-36.182-51.673c-2.245-3.205-1.465-7.623 1.74-9.867s7.623-1.465 9.867 1.74l36.182 51.673c2.244 3.205 1.465 7.623-1.74 9.867-3.197 2.24-7.618 1.472-9.867-1.74z"/></g><path d="m308.636 310.186c-53.626 2.52-66.367-24.228-69.222-40.189-.374-2.091-1.088-4.062-2.078-5.864-2.737 20.756-20.533 36.832-42.025 36.832-23.023 0-41.808-18.45-42.376-41.345h-1.039c.569 47.494 39.227 85.825 86.856 85.825 28.65 0 54.058-13.87 69.884-35.259z" fill="#194e8e"/><path d="m151.869 258.563c0-47.984 38.899-86.882 86.882-86.882 47.982 0 86.88 38.896 86.882 86.878-.002-23.99-19.451-43.437-43.441-43.437-23.992 0-43.441 19.45-43.441 43.441 0 23.992-19.449 43.441-43.441 43.441-23.989 0-43.437-19.445-43.441-43.433 0-.003 0-.005 0-.005z" fill="#ff4848"/><path d="m238.142 265.793c-2.133-4.959-6.281-8.862-11.502-10.732-55.165-19.766-31.705-71.528-31.702-71.534-25.762 15.075-43.068 43.032-43.068 75.036v.003.005c.004 23.988 19.452 43.433 43.441 43.433 21.527 0 39.386-15.663 42.831-36.211z" fill="#dc2624"/></svg>